<svg xmlns="http://www.w3.org/2000/svg" viewBox="0 0 328.13 98.93" height="36px"><defs><style>.cls-1{fill:#1c3c65;}.cls-1,.cls-2,.cls-3{fill-rule:evenodd;}.cls-2,.cls-4{fill:#193b62;}.cls-3{fill:#fff;}</style></defs><g id="图层_2" data-name="图层 2"><g id="图层_1-2" data-name="图层 1"><path class="cls-1" d="M128.35,16h5c1,0,2,0,3,0,.42,0,.54-.13.53-.55,0-1.14,0-2.29,0-3.43a2,2,0,1,1,4,0c0,1.09.05,2.19,0,3.27,0,.64.19.74.76.73q6,0,12.06,0a2.07,2.07,0,0,1,2,1.39,2.12,2.12,0,0,1-.66,2.24,2.4,2.4,0,0,1-1.58.43c-3.92,0-7.83,0-11.74,0-.72,0-.88.19-.87.88,0,2.8.05,5.6,0,8.39,0,.75.23.87.9.86,2.24,0,4.47,0,6.71,0a2,2,0,0,1,2.3,2,2.05,2.05,0,0,1-2.32,2.06c-2.32,0-4.63,0-7,0-.47,0-.64.1-.63.62,0,1.41,0,2.82,0,4.23a2,2,0,1,1-4,0c0-1.41,0-2.82,0-4.23,0-.5-.15-.62-.63-.62-2.4,0-4.79,0-7.19,0a2,2,0,0,1-2-1.66,2,2,0,0,1,1.24-2.26,2.94,2.94,0,0,1,1.1-.13c2.24,0,4.48,0,6.71,0,.59,0,.83-.1.82-.77,0-2.88,0-5.76,0-8.63,0-.54-.13-.73-.7-.73q-4.24,0-8.47,0a.71.71,0,0,0-.8.56A22.07,22.07,0,0,1,122,28a2,2,0,0,1-2.93.09,2,2,0,0,1,0-2.93,19.59,19.59,0,0,0,5.61-11.87,2,2,0,0,1,2.38-2,2,2,0,0,1,1.64,2.54C128.59,14.56,128.48,15.24,128.35,16Z"/><path class="cls-1" d="M184.31,16c2.75,0,5.46,0,8.17,0,.39,0,.42-.18.41-.49,0-1.09,0-2.18,0-3.27a2,2,0,1,1,4.06,0c0,1,0,2,0,3,0,.56.13.72.7.71q6,0,12.06,0A2,2,0,0,1,211,19.73a2.45,2.45,0,0,1-1.45.33c-3.91,0-7.83,0-11.74,0-.64,0-.87.13-.86.82q.06,4.28,0,8.55c0,.59.14.77.75.76,2.26,0,4.53,0,6.79,0,1.48,0,2.33.74,2.33,2s-.88,2-2.32,2c-2.27,0-4.53,0-6.79,0-.58,0-.79.1-.77.73.06,1.3,0,2.61,0,3.91,0,1.46-.78,2.32-2.06,2.31a2,2,0,0,1-2-2.29c0-1.3,0-2.61,0-3.91,0-.58-.1-.77-.72-.75-2.29,0-4.58,0-6.87,0a2,2,0,1,1,0-4.05c2.29,0,4.58,0,6.87,0,.56,0,.78-.09.77-.73q-.06-4.35,0-8.7c0-.58-.17-.7-.71-.7-2.8,0-5.59,0-8.39,0a.76.76,0,0,0-.85.59,21.94,21.94,0,0,1-5,7.41A2,2,0,1,1,175,25.22a25,25,0,0,0,3-3.74,20.9,20.9,0,0,0,2.61-7.88c.27-1.55.95-2.32,2.14-2.3a2,2,0,0,1,2,2.37C184.61,14.43,184.45,15.18,184.31,16Z"/><path class="cls-1" d="M248.11,25.38a49.63,49.63,0,0,1-5.42,5.79,51.91,51.91,0,0,1-7.83,5.76,2,2,0,0,1-2.63-.28,2.1,2.1,0,0,1-.18-2.58,2.91,2.91,0,0,1,1-.79c7.22-4.27,13.9-11.9,16.18-17.92h-15.9a2,2,0,0,1-2.07-1.64,2.05,2.05,0,0,1,1.24-2.27,2.7,2.7,0,0,1,1.09-.15h18.77c2.09,0,3,1.47,2,3.34-.51,1-1,2-1.55,2.88a4.43,4.43,0,0,0-.64,2.56q0,13.22,0,26.44a2.05,2.05,0,0,1-2,2.2,2.12,2.12,0,0,1-2-2.2c0-6.79,0-13.58,0-20.37Z"/><path class="cls-1" d="M138.93,48.14H123c-1.41,0-2.23-.75-2.22-2a2,2,0,0,1,2.18-2h32a2,2,0,0,1,2.08,1.52,2.08,2.08,0,0,1-1,2.3,2.32,2.32,0,0,1-1.16.2Z"/><path class="cls-1" d="M194.92,48.14H179c-1.41,0-2.27-.76-2.28-2a2,2,0,0,1,2.25-2h31.87a2,2,0,0,1,2.22,2,1.94,1.94,0,0,1-2.19,2Z"/><path class="cls-1" d="M306.25,47.86h-9.9c-2.21,0-2.8-.58-2.8-2.76,0-1.17,0-2.34,0-3.51a2,2,0,0,1,2-2.16,1.94,1.94,0,0,1,2,2.1c0,.56,0,1.09,0,1.68s.18.61.64.6q8,0,16,0c.5,0,.63-.12.64-.63V41.34A2,2,0,0,1,317,39.43a1.92,1.92,0,0,1,2,1.88c0,1.55,0,3.09,0,4.63a1.94,1.94,0,0,1-2.19,1.92Z"/><path class="cls-1" d="M268.7,34.84a1.89,1.89,0,0,1-1.18,1.92,1.93,1.93,0,0,1-2.22-.36c-.7-.65-1.36-1.35-2-2-2.22-2.22-4.44-4.42-6.65-6.66a2,2,0,0,1,.82-3.49,1.92,1.92,0,0,1,2,.53q4.36,4.34,8.69,8.68A1.85,1.85,0,0,1,268.7,34.84Z"/><path class="cls-1" d="M262.81,15.36H258.5a2,2,0,0,1-2.14-2,2,2,0,0,1,2.05-2.07q4.43,0,8.86,0a1.94,1.94,0,0,1,2.06,2,2,2,0,0,1-2.12,2Z"/><path class="cls-1" d="M285.86,42.44c0-.95,0-1.91,0-2.86a2,2,0,1,1,4,0c0,1.91,0,3.83,0,5.74a2,2,0,0,1-2,2,2,2,0,0,1-2-2V42.44Z"/><path class="cls-1" d="M326.65,42.41c0,1,0,2,0,2.94a2,2,0,0,1-4,0c0-2,0-3.93,0-5.9a1.91,1.91,0,0,1,2-1.9,1.88,1.88,0,0,1,2,1.91C326.67,40.44,326.65,41.42,326.65,42.41Z"/><path class="cls-1" d="M324.62,24.46V18.31a5.5,5.5,0,0,0-5.87-5.83c-3.24,0-6.49,0-9.74,0-.53,0-.76-.09-.71-.68a2.17,2.17,0,0,0-.37-1.59,2.09,2.09,0,0,0-2.28-.74,2,2,0,0,0-1.39,1.93c0,1.06,0,1.06-1.1,1.06h-9.43a5.15,5.15,0,0,0-5.45,5.46q0,6.35,0,12.7a5.25,5.25,0,0,0,5.56,5.55c3.22,0,6.44,0,9.66,0,.57,0,.81.1.77.73-.06.93,0,1.87,0,2.8a2,2,0,1,0,4,.12c0-.79,0-1.59,0-2.39,0-1.25,0-1.25,1.2-1.25,3.28,0,6.55,0,9.83,0a5,5,0,0,0,5.27-5.26Zm-4.06,6.12c0,1.3-.26,1.56-1.53,1.56H294.12c-1.39,0-1.75-.37-1.78-1.74s0-1.3,1.28-1.3h20.85a2.06,2.06,0,0,0,1.95-1,1.92,1.92,0,0,0,0-2.11,2,2,0,0,0-2-1c-3.12,0-6.23,0-9.35,0-4,0-8,0-12,0-.72,0-.8-.28-.8-.88s.06-.89.79-.88c7.11,0,14.22,0,21.33,0a2.09,2.09,0,0,0,2.05-1.11,2,2,0,0,0-.14-2.12,2.23,2.23,0,0,0-2-.87q-10.47,0-20.93,0c-.35,0-.92.05-1.05-.41-.15-1.41.11-2,1-2.19a5,5,0,0,1,.95-.07h24.12c1.75,0,2.18.42,2.18,2.14Z"/><path class="cls-2" d="M83.47,77.84c.94.79,1.8,1.52,2.68,2.23.49.41.9.86.72,1.55s-.78.81-1.36.94a15.79,15.79,0,0,0-4.13,1.21,8.79,8.79,0,0,0-2,1.41A31.68,31.68,0,0,1,64.52,93c-2.06.51-4.12,1-6.2,1.34-.64.12-.94.33-.85,1.06a11.09,11.09,0,0,1,0,2.23c-.08,1.19-.72,1.6-1.84,1.12-1.36-.59-2.69-1.25-4-1.89-1.66-.8-3.33-1.59-5-2.42a2.18,2.18,0,0,0-2.06,0c-2.85,1.38-5.72,2.74-8.58,4.1a4.43,4.43,0,0,1-.68.28c-.86.25-1.4-.07-1.47-1a21.9,21.9,0,0,1-.08-2.56.74.74,0,0,0-.69-.88,90.33,90.33,0,0,1-9.87-2.52A29.21,29.21,0,0,1,11.72,85a8.91,8.91,0,0,0-4.58-2.16l-1.72-.34c-.48-.1-.93-.27-1-.82a1.38,1.38,0,0,1,.53-1.49c.78-.62,1.53-1.26,2.29-1.9l.5-.46L3.18,76.06l-1.82-.7a1.21,1.21,0,0,1-.15-2.3c1.69-.9,3.35-1.85,5.08-2.66A4.21,4.21,0,0,0,8.89,67a66.8,66.8,0,0,1,3.63-12.2c.35-.92.35-.92-.56-1.23a11,11,0,0,1-2.85-1.52,38,38,0,0,1-7-6.55,8.86,8.86,0,0,1-.86-10.34A113.75,113.75,0,0,1,8.42,24a15.2,15.2,0,0,1,10.75-6.31,6.19,6.19,0,0,1,6.56,4.77,43.79,43.79,0,0,1,.79,5.34,25.53,25.53,0,0,0,1.69,5.88c.23.57.47.71,1,.35A22.84,22.84,0,0,1,37,31a1.49,1.49,0,0,0,1.34-1.34q1.88-8.93,3.78-17.83c.77-3.59,1.53-7.18,2.31-10.77C44.56.3,44.93,0,45.61,0s1,.31,1.19,1.14q.71,3.2,1.38,6.39,2.39,11.16,4.76,22.31A1.36,1.36,0,0,0,54.14,31a28.29,28.29,0,0,1,7.31,2.53,4.24,4.24,0,0,0,1.89.42c5.39.18,10.48-1.18,15.47-3a36.8,36.8,0,0,0,9.59-5c.94-.71,1.75-.5,2,.54a30.14,30.14,0,0,1,.19,18.15A27.86,27.86,0,0,1,81.48,58a2.24,2.24,0,0,0-.84,2.85,53.18,53.18,0,0,1,1.77,6.92A3,3,0,0,0,84.06,70c1.92,1,3.83,2,5.74,3,.4.21.8.43.91.93.15.7-.13,1.18-.94,1.5-1.84.73-3.68,1.43-5.53,2.15Z"/><path class="cls-2" d="M52.8,6.51a43.47,43.47,0,0,1,9.54,2.24A41,41,0,0,1,83.13,25l.11.17c.36.59.29,1.12-.18,1.42a.92.92,0,0,1-1.38-.37,46.85,46.85,0,0,0-3-4A39.48,39.48,0,0,0,55.35,8.81c-.93-.18-1.87-.29-2.8-.44-.46-.08-.9-.2-1-.76C51.45,6.87,51.86,6.47,52.8,6.51Z"/><path class="cls-2" d="M39.1,6.75c.59,0,1,.14,1.12.81s-.2.94-.95,1a36.87,36.87,0,0,0-16.27,7l-.22.16c-.63.4-1.16.37-1.5-.09s-.19-1,.45-1.48a45.81,45.81,0,0,1,8.39-4.86A37.17,37.17,0,0,1,38.5,6.82C38.7,6.78,38.9,6.77,39.1,6.75Z"/><path class="cls-2" d="M89.75,54.75a30.59,30.59,0,0,1-2.62,10c-.28.64-.54,1.28-.85,1.91-.21.44-.52.81-1.09.73s-.92-.67-.63-1.42c.44-1.13.93-2.24,1.39-3.36a25.6,25.6,0,0,0,1.91-7.7,3.46,3.46,0,0,1,.09-.53.86.86,0,0,1,1-.8c.59.05.8.44.82,1Z"/><path class="cls-2" d="M3.71,52.4c0-.14,0-.27,0-.4,0-.59.28-1,.89-1a.9.9,0,0,1,1,1,41.64,41.64,0,0,0,.51,5,33.54,33.54,0,0,0,1.74,5.79,2.6,2.6,0,0,1,.16.44.91.91,0,0,1-.57,1.16.84.84,0,0,1-1.16-.5A28.92,28.92,0,0,1,5,60.37,31.73,31.73,0,0,1,3.71,52.4Z"/><path class="cls-3" d="M45.55,6.87c.31.17.24.46.29.68q2.67,12.33,5.31,24.68A.87.87,0,0,0,52,33a24.25,24.25,0,0,1,5.55,1.32A21.89,21.89,0,0,1,61,36.06a2.46,2.46,0,0,0,1.63.39c2.37-.26,4.77-.29,7.13-.7a49.86,49.86,0,0,0,18-6.65c.9-.56,1-.55,1.2.51,1.76,9.29,0,17.62-6.8,24.55a22,22,0,0,1-4.48,3.44c-.31.19-.39.33-.26.67a68.84,68.84,0,0,1,2.81,10.35,4.42,4.42,0,0,0,2.53,3.27c1.31.64,2.58,1.37,3.9,2.07-.15.26-.41.27-.63.36l-4.7,1.86a5.55,5.55,0,0,0-.56.24c-1,.51-1.09,1.21-.28,2s1.44,1.23,2.15,1.85c.13.11.37.18.29.4s-.27.12-.42.15a7.46,7.46,0,0,0-3.92,2,32.46,32.46,0,0,1-16.48,8.42c-1.36.29-2.73.57-4.08.91-.55.13-.65,0-.64-.53a28.05,28.05,0,0,0,0-2.9c-.07-1.24-.71-1.67-1.86-1.18-1.75.76-3.46,1.6-5.19,2.42-1.26.59-2.53,1.18-3.77,1.8a2.05,2.05,0,0,1-1.94,0c-2.75-1.31-5.52-2.6-8.29-3.9a10.36,10.36,0,0,0-1-.41c-.92-.3-1.39,0-1.52.93a28,28,0,0,0-.06,3c0,.81,0,.82-.77.66a58.71,58.71,0,0,1-11.84-3.4,30.11,30.11,0,0,1-8.39-5.71,5.92,5.92,0,0,0-4.21-2c-.2,0-.44,0-.5-.24s.14-.32.28-.43c.69-.54,1.4-1.06,2.08-1.62,1.17-1,1.05-1.83-.35-2.39-1.84-.74-3.69-1.43-5.54-2.15,0-.18.13-.21.23-.27,1.11-.6,2.18-1.26,3.34-1.76a5.07,5.07,0,0,0,3-4.2,71.46,71.46,0,0,1,4.05-13.41,1,1,0,0,1,.61-.68,7.09,7.09,0,0,0,4.49-4.26,27.36,27.36,0,0,0,2.3-8.5,38.26,38.26,0,0,0-.47-12.17c-.2-.95-.71-1.33-1.41-1.13s-.86.67-.72,1.53.31,1.73.42,2.6a32.3,32.3,0,0,1-1.93,16.25,7.58,7.58,0,0,1-1.38,2.3,3.62,3.62,0,0,1-4.1,1.1,8.44,8.44,0,0,1-2.38-1.24,35.6,35.6,0,0,1-6.66-6.2,6.41,6.41,0,0,1-1.1-6.77,14.19,14.19,0,0,1,1.35-2.63C6,31.8,7.79,29,9.64,26.13a14.15,14.15,0,0,1,9-6.17,4.06,4.06,0,0,1,4.9,3.16,34.65,34.65,0,0,1,.69,4.53A30.53,30.53,0,0,0,27.14,37c.35.73.61.77,1.25.31a23.29,23.29,0,0,1,8.46-3.92,16.38,16.38,0,0,1,2.21-.22,1,1,0,0,0,1-.88C41.26,26.55,42.5,20.78,43.73,15q.81-3.82,1.65-7.65A2.69,2.69,0,0,1,45.55,6.87Z"/><path class="cls-2" d="M70.3,65.57A12.69,12.69,0,0,1,69.75,69c-.87,2.88-2.94,4.26-5.8,4.73s-5-.71-6.64-3a9.58,9.58,0,0,1-1.6-3.25,1.93,1.93,0,0,1,1.43-2.61c3.31-1,6.62-2,9.94-3,1.8-.53,2.78.12,3,2C70.21,64.4,70.25,65,70.3,65.57Z"/><path class="cls-2" d="M20.56,65.54a12.09,12.09,0,0,1,.13-2.05c.32-1.54,1.16-2.11,2.69-1.67,2.68.76,5.34,1.59,8,2.39.82.24,1.65.47,2.44.77a2,2,0,0,1,1.36,2.1c-.32,3.87-5.74,8.82-11,5.92a6.76,6.76,0,0,1-3.44-5.35C20.63,66.87,20.61,66.09,20.56,65.54Z"/><path class="cls-2" d="M45.57,68.63h2.16a1,1,0,0,1,1,.5,1.06,1.06,0,0,1-.18,1.14c-.61.81-1.25,1.59-1.86,2.4A2,2,0,0,0,47,75.79c.53.45,1.08.88,1.6,1.34.29.25.5.55.2.93s-.63.28-.94,0c-.58-.47-1.16-.93-1.71-1.43a.74.74,0,0,0-1.17,0c-.52.49-1.07,1-1.62,1.42-.31.27-.65.34-.94,0s-.14-.62.15-.88c.58-.52,1.19-1,1.75-1.59a1.85,1.85,0,0,0,.29-2.71c-.58-.86-1.24-1.66-1.87-2.48a1.2,1.2,0,0,1-.31-1.3c.22-.52.7-.48,1.15-.49Z"/><path class="cls-2" d="M39.94,60.26A2.3,2.3,0,1,1,37.63,58,2.26,2.26,0,0,1,39.94,60.26Z"/><path class="cls-2" d="M51.3,60.28a2.31,2.31,0,1,1,2.29,2.32A2.26,2.26,0,0,1,51.3,60.28Z"/><path class="cls-4" d="M120.73,78.24c0-3.47,0-6.94,0-10.41,0-.81.6-1.13,1-1.59.08-.09.31,0,.48,0h17a1.65,1.65,0,0,1,1.57,1.63c0,4.47-.05,8.93,0,13.4,0,1-.62,1.49-1.07,2.16-.15.22-.45.11-.68.11l-9.62,0c-.55,0-1.09,0-1.64,0-.38,0-.48.13-.48.49,0,1.59,0,3.18,0,4.77a1.34,1.34,0,0,1-.42,1,2,2,0,0,1-1.74.71c-1-.07-1.9,0-2.85,0a1,1,0,0,1-.79-.36,2.61,2.61,0,0,1-.77-2c.05-3.28,0-6.56,0-9.83Zm6.54-3.43c0,1.21,0,2.42,0,3.64,0,.52,0,.53.49.53h6.41c.35,0,.51-.08.5-.48,0-2.44,0-4.89,0-7.34,0-.5,0-.51-.51-.51-2.14,0-4.28,0-6.42,0-.37,0-.49.11-.48.48C127.28,72.34,127.27,73.57,127.27,74.81Z"/><path class="cls-4" d="M225.66,78.19c0-3.54,0-7.08,0-10.62a1.35,1.35,0,0,1,.33-1,1.21,1.21,0,0,1,1-.42c5.3,0,10.59,0,15.89,0a2.11,2.11,0,0,1,1.46.75c.14.12.1.3.1.47v2.06a1.17,1.17,0,0,1-1.13,1.19,4,4,0,0,1-.49,0H232.47c-.28,0-.37.12-.37.38,0,1.38,0,2.76,0,4.14,0,.24.1.34.34.33s.33,0,.5,0h9.69c.89,0,1,.13,1,1s0,2,0,2.93a1,1,0,0,1-1,1c-.21,0-.42,0-.64,0h-9c-.14,0-.29,0-.43,0-.37,0-.49.1-.49.48,0,1.16,0,2.33,0,3.49,0,.4-.17.89.1,1.17s.76.1,1.16.1c3.25,0,6.51,0,9.76,0a3.62,3.62,0,0,1,.57,0,.83.83,0,0,1,.73.89c0,1,0,1.9,0,2.85a.89.89,0,0,1-1,1H227.1a1.52,1.52,0,0,1-1.44-1.5V78.19Z"/><path class="cls-4" d="M150,81.7V74.64a1,1,0,0,1,.16-.75,5.46,5.46,0,0,1,1.13-1.07,1.12,1.12,0,0,1,.49,0q6.27,0,12.54,0a1.29,1.29,0,0,1,1.12.58,2.53,2.53,0,0,1,.56,1.7c0,2.26,0,4.51,0,6.77a1.37,1.37,0,0,1-.3.84,2.45,2.45,0,0,1-2.42,1.17c-2.76-.09-5.52,0-8.27,0h-.5c-.21,0-.3.09-.3.3,0,1,0,2.09,0,3.13,0,.33.22.31.44.31h6.48c.33,0,.49-.1.46-.45a5.66,5.66,0,0,1,0-.92c0-.43.15-.57.57-.57,1.18,0,2.37,0,3.56,0,.46,0,.6.15.61.6,0,1.1,0,2.19,0,3.28a1.35,1.35,0,0,1-1.06,1H151.65c-.32,0-.67.1-.9-.26s-.81-.74-.79-1.44c0-2.35,0-4.7,0-7Zm7.86-5.65h0c-1.07,0-2.14,0-3.2,0-.34,0-.46.09-.46.44,0,1.18,0,2.37,0,3.56,0,.3.1.41.41.41h6.47c.3,0,.42-.09.42-.4,0-1.19,0-2.38,0-3.56,0-.36-.14-.43-.46-.43C160,76.06,158.9,76.05,157.84,76.05Z"/><path class="cls-4" d="M287.79,81.68c0-2.3,0-4.61,0-6.91a1.44,1.44,0,0,1,.55-1.3,3.92,3.92,0,0,0,.34-.37,1,1,0,0,1,.76-.32q6.4,0,12.83,0a1,1,0,0,1,.83.42,2.82,2.82,0,0,1,.7,2c-.05,2.19,0,4.37,0,6.56a1.68,1.68,0,0,1-.39,1,2.32,2.32,0,0,1-2.26,1c-2.78-.08-5.56,0-8.34,0h-.43c-.27,0-.39.09-.39.37,0,1,0,2,0,3,0,.28.12.4.39.38h.21l6.27,0c.5,0,.51,0,.52-.51,0-.28,0-.57,0-.85s.18-.56.59-.57c1.18,0,2.37,0,3.56,0,.47,0,.6.14.61.61,0,1.09,0,2.19,0,3.28,0,.4-.59.93-1.06,1H289.44c-.29,0-.63.11-.85-.21s-.84-.77-.82-1.5c.05-2.35,0-4.7,0-7.06Zm7.85-1.25h0c1.07,0,2.14,0,3.21,0,.33,0,.46-.1.46-.44,0-1.17,0-2.33,0-3.49,0-.34-.1-.46-.44-.46h-6.49c-.29,0-.42.08-.42.4,0,1.19,0,2.37,0,3.56,0,.36.14.44.46.44C293.5,80.42,294.57,80.43,295.64,80.43Z"/><path class="cls-4" d="M266.86,84.14c.33-1,.66-2.08,1-3.11L270,74A1.37,1.37,0,0,1,271.49,73c.9,0,1.81,0,2.71,0,.49,0,.72.29,1,.59s0,.42-.06.6c-.51,1.58-1,3.16-1.54,4.74q-1.72,5.24-3.44,10.48c-.3.91-.54,1.09-1.47,1.09H263a1.16,1.16,0,0,1-1.3-1q-2.33-7.69-4.62-15.41c-.21-.72.1-1.13.86-1.13h4.49A1.29,1.29,0,0,1,263.86,74l2.7,9.51.18.61Z"/><path class="cls-4" d="M316,81.39V73.77a1.68,1.68,0,0,1,1.62-1.6h9.26a1.23,1.23,0,0,1,.8.21.82.82,0,0,1,.41.76c0,1.14,0,2.28,0,3.41a1,1,0,0,1-1.05,1.07c-1.45,0-2.9,0-4.34,0-.54,0-.55,0-.55.56V89.06a1.28,1.28,0,0,1-.07.7,1.13,1.13,0,0,1-1.1.71c-1.26-.06-2.52,0-3.77,0A1.12,1.12,0,0,1,316,89.22c0-1.85,0-3.7,0-5.55V81.39Z"/><path class="cls-4" d="M178.34,82.47c0-2,0-3.9,0-5.85,0-.54,0-.55-.55-.55h-1.85a.73.73,0,0,1-.8-.79c0-.64,0-1.28,0-1.92a.85.85,0,0,1,.86-.85q1,0,1.92,0c.34,0,.46-.11.45-.45,0-.9,0-1.81,0-2.71,0-.71.18-.88.89-.88h3.28c.66,0,.94.3.95,1,0,.87,0,1.75,0,2.63,0,.35.11.46.45.45.57,0,1.14,0,1.71,0s.72.1.72.69c0,.79,0,1.57,0,2.35,0,.51,0,.53-.51.55s-1.19,0-1.79,0-.57,0-.57.6c0,2.88,0,5.75,0,8.63,0,.44-.18,1,.07,1.31s.85.1,1.29.12c1,0,1.07.11,1.08,1.14,0,.4,0,.8,0,1.21a1.1,1.1,0,0,1-.31.82,1.4,1.4,0,0,1-1.24.53c-1.16,0-2.32,0-3.49,0a1.34,1.34,0,0,1-.86-.27c-.36-.26-.74-.51-1.12-.75a1.07,1.07,0,0,1-.57-1c0-2,0-4,0-5.92Z"/><path class="cls-4" d="M206.93,80.32h-5.14c-.79,0-.85,0-.86-.85,0-1,0-2,0-3.06,0-.77.15-.91.92-.91h10.26a2.07,2.07,0,0,1,.43,0,.54.54,0,0,1,.53.56c0,1.23,0,2.47,0,3.7a.48.48,0,0,1-.47.53q-.31,0-.63,0Z"/></g></g></svg>