<svg xmlns="http://www.w3.org/2000/svg" viewBox="0 0 224 231.65"><defs><style>.cls-1,.cls-2{fill:#0a3c63;}.cls-1{fill-rule:evenodd;}</style></defs><g id="图层_2" data-name="图层 2"><g id="图层_1-2" data-name="图层 1"><path class="cls-1" d="M10.69,161H16.1c1.08,0,2.17,0,3.26,0,.46,0,.59-.14.58-.59,0-1.23,0-2.46,0-3.69a2.17,2.17,0,1,1,4.34,0c0,1.17.05,2.35,0,3.52,0,.68.21.78.82.78,4.33,0,8.65,0,13,0a2.22,2.22,0,0,1,2.18,1.49,2.28,2.28,0,0,1-.71,2.41,2.58,2.58,0,0,1-1.7.47c-4.21,0-8.42,0-12.63,0-.77,0-1,.21-.94.95.05,3,.06,6,0,9,0,.8.24.93,1,.92,2.41,0,4.82,0,7.22,0a2.17,2.17,0,0,1,2.47,2.14,2.2,2.2,0,0,1-2.49,2.22c-2.49,0-5,0-7.47,0-.52,0-.7.11-.68.66,0,1.51,0,3,0,4.55a2.17,2.17,0,1,1-4.34,0c0-1.52,0-3,0-4.56,0-.54-.15-.67-.67-.66q-3.87,0-7.74,0a2.18,2.18,0,0,1-2.21-1.79,2.23,2.23,0,0,1,1.34-2.43,3,3,0,0,1,1.19-.14c2.4,0,4.81,0,7.22,0,.63,0,.89-.11.88-.83-.05-3.1,0-6.19,0-9.28,0-.59-.14-.79-.75-.78-3,0-6.08,0-9.11,0a.78.78,0,0,0-.86.61,23.81,23.81,0,0,1-5.39,8,2.19,2.19,0,0,1-3.15.09,2.13,2.13,0,0,1,0-3.14,21,21,0,0,0,6-12.78A2.2,2.2,0,0,1,9.3,156a2.16,2.16,0,0,1,1.76,2.74C10.94,159.47,10.82,160.2,10.69,161Z"/><path class="cls-1" d="M70.88,161c3,0,5.87,0,8.79,0,.42,0,.45-.19.44-.52,0-1.17,0-2.35,0-3.52a2.2,2.2,0,1,1,4.36,0c0,1.09,0,2.18,0,3.27,0,.6.15.76.76.76,4.32,0,8.64,0,13,0a2.2,2.2,0,0,1,1.38,4,2.59,2.59,0,0,1-1.56.35c-4.21,0-8.42,0-12.63,0-.69,0-.94.14-.92.88,0,3.06,0,6.13,0,9.19,0,.64.16.83.81.82,2.43,0,4.87,0,7.3,0,1.6,0,2.51.8,2.52,2.17s-1,2.19-2.51,2.19c-2.43,0-4.87,0-7.3,0-.62,0-.85.1-.82.78.05,1.4,0,2.81,0,4.21,0,1.56-.84,2.5-2.21,2.48a2.18,2.18,0,0,1-2.15-2.46c0-1.4,0-2.81,0-4.21,0-.62-.11-.82-.78-.81-2.46,0-4.92,0-7.38,0a2.21,2.21,0,0,1-2.47-2.17,2.18,2.18,0,0,1,2.42-2.19c2.47,0,4.93,0,7.39,0,.61,0,.84-.1.83-.78,0-3.12,0-6.25,0-9.37,0-.62-.19-.75-.77-.74-3,0-6,0-9,0a.83.83,0,0,0-.92.64,23.8,23.8,0,0,1-5.4,8,2.19,2.19,0,1,1-3.15-3,28.16,28.16,0,0,0,3.21-4,22.6,22.6,0,0,0,2.81-8.48c.29-1.67,1-2.5,2.3-2.47a2.16,2.16,0,0,1,2.13,2.54C71.2,159.33,71,160.14,70.88,161Z"/><path class="cls-1" d="M139.51,171.1a50.81,50.81,0,0,1-5.84,6.23,56.26,56.26,0,0,1-8.42,6.21,2.18,2.18,0,0,1-2.82-.31,2.23,2.23,0,0,1-.19-2.77,3.23,3.23,0,0,1,1.05-.86c7.78-4.59,15-12.79,17.41-19.27H123.6a2.18,2.18,0,0,1-2.23-1.76,2.21,2.21,0,0,1,1.33-2.44,3,3,0,0,1,1.18-.17h20.19c2.25,0,3.17,1.57,2.12,3.59-.55,1-1,2.1-1.67,3.09a4.78,4.78,0,0,0-.69,2.76q0,14.22,0,28.44a2.2,2.2,0,0,1-2.18,2.36,2.26,2.26,0,0,1-2.17-2.36c0-7.3,0-14.61,0-21.91Z"/><path class="cls-1" d="M22.06,195.59H5c-1.52,0-2.4-.81-2.39-2.17a2.11,2.11,0,0,1,2.34-2.15H39.36a2.13,2.13,0,0,1,2.23,1.63,2.23,2.23,0,0,1-1.1,2.48,2.55,2.55,0,0,1-1.25.21Z"/><path class="cls-1" d="M82.29,195.59H65.2c-1.52,0-2.45-.81-2.45-2.14a2.15,2.15,0,0,1,2.41-2.18H99.44a2.11,2.11,0,0,1,2.39,2.19,2.08,2.08,0,0,1-2.36,2.13Z"/><path class="cls-1" d="M202,195.29H191.4c-2.38,0-3-.62-3-3,0-1.26,0-2.52,0-3.78a2.15,2.15,0,0,1,2.2-2.32,2.1,2.1,0,0,1,2.16,2.26c0,.6,0,1.17,0,1.81s.18.65.68.65q8.64,0,17.26,0c.55,0,.68-.12.69-.67v-2a2.1,2.1,0,0,1,2.23-2.05,2.06,2.06,0,0,1,2.12,2c0,1.66,0,3.32,0,5a2.09,2.09,0,0,1-2.35,2.06C209.6,195.3,205.82,195.29,202,195.29Z"/><path class="cls-1" d="M161.65,181.28a2,2,0,0,1-1.26,2.07A2.08,2.08,0,0,1,158,183c-.76-.7-1.47-1.45-2.19-2.18-2.39-2.38-4.79-4.76-7.16-7.16a2.19,2.19,0,0,1,.89-3.76,2.07,2.07,0,0,1,2.12.57q4.69,4.66,9.35,9.34A1.94,1.94,0,0,1,161.65,181.28Z"/><path class="cls-1" d="M155.32,160.33h-4.63a2.14,2.14,0,0,1-2.31-2.13,2.1,2.1,0,0,1,2.2-2.22c3.18,0,6.36,0,9.54,0a2.09,2.09,0,0,1,2.21,2.21,2.14,2.14,0,0,1-2.28,2.15Z"/><path class="cls-1" d="M180.12,189.46c0-1,0-2.05,0-3.08a2.17,2.17,0,1,1,4.34,0c0,2.06,0,4.12,0,6.17a2.17,2.17,0,0,1-4.34,0v-3.09Z"/><path class="cls-1" d="M224,189.42c0,1.06,0,2.12,0,3.17a2.06,2.06,0,0,1-2.11,2.11,2.08,2.08,0,0,1-2.2-2.11c0-2.11,0-4.23,0-6.34a2.05,2.05,0,0,1,2.17-2.05,2,2,0,0,1,2.14,2.05C224,187.31,224,188.37,224,189.42Z"/><path class="cls-1" d="M221.8,170.12c0-2.21,0-4.41,0-6.62a5.91,5.91,0,0,0-6.3-6.27c-3.5,0-7,0-10.49,0-.57,0-.82-.09-.75-.73a2.4,2.4,0,0,0-.41-1.71,2.24,2.24,0,0,0-2.45-.8,2.15,2.15,0,0,0-1.49,2.08c0,1.14,0,1.14-1.19,1.14H188.58a5.52,5.52,0,0,0-5.86,5.86c0,4.56,0,9.11,0,13.67a5.66,5.66,0,0,0,6,6c3.46,0,6.93,0,10.39,0,.62,0,.87.1.82.78-.06,1,0,2,0,3a2.17,2.17,0,1,0,4.34.14c.05-.86,0-1.72,0-2.58,0-1.34,0-1.34,1.3-1.34h10.57a5.39,5.39,0,0,0,5.66-5.66C221.81,174.76,221.8,172.44,221.8,170.12Zm-4.36,6.58c0,1.39-.28,1.67-1.64,1.67H189c-1.49,0-1.89-.4-1.91-1.87s0-1.4,1.37-1.4h22.43a2.23,2.23,0,0,0,2.1-1.06,2.09,2.09,0,0,0,0-2.28,2.23,2.23,0,0,0-2.11-1H200.81c-4.29,0-8.59,0-12.88,0-.79,0-.87-.29-.87-.95s.06-.95.86-.94c7.64,0,15.29,0,22.94,0a2.24,2.24,0,0,0,2.2-1.19,2.1,2.1,0,0,0-.15-2.28,2.4,2.4,0,0,0-2.18-.94c-7.51,0-15,0-22.51,0-.38,0-1,.06-1.13-.44-.17-1.52.11-2.19,1-2.36a6,6,0,0,1,1-.07h25.94c1.89,0,2.35.45,2.35,2.3Z"/><path class="cls-2" d="M169.61,100.2c-2.62-1.39-5.24-2.78-7.87-4.14a4.07,4.07,0,0,1-2.27-3A73.67,73.67,0,0,0,157,83.58a3.08,3.08,0,0,1,1.16-3.91,38.28,38.28,0,0,0,12.58-18.43c2.68-8.32,2.18-16.64-.26-24.93-.42-1.42-1.53-1.72-2.82-.74a50.33,50.33,0,0,1-13.16,6.91c-6.86,2.54-13.85,4.4-21.25,4.16a6.15,6.15,0,0,1-2.6-.57,38.09,38.09,0,0,0-10-3.48A1.86,1.86,0,0,1,119,41q-3.25-15.31-6.54-30.63-.93-4.39-1.89-8.79C110.32.43,109.85,0,108.93,0s-1.44.41-1.68,1.5q-1.59,7.4-3.16,14.78c-1.74,8.16-3.49,16.32-5.2,24.49a2,2,0,0,1-1.84,1.85,31.24,31.24,0,0,0-10.58,4c-.79.49-1.11.3-1.43-.47a34.56,34.56,0,0,1-2.32-8.08,58.52,58.52,0,0,0-1.09-7.34c-1.21-4.31-5-7-9-6.54a20.86,20.86,0,0,0-14.75,8.66A156.56,156.56,0,0,0,48,48.28a12.17,12.17,0,0,0,1.18,14.2,51.09,51.09,0,0,0,9.59,9,14.44,14.44,0,0,0,3.91,2.09C64,74,64,74,63.49,75.25a91.92,91.92,0,0,0-5,16.76,5.8,5.8,0,0,1-3.58,4.66c-2.37,1.11-4.65,2.43-7,3.65a1.72,1.72,0,0,0-1.06,1.61,1.68,1.68,0,0,0,1.26,1.56l2.51,1,6.19,2.42c-.29.26-.48.46-.69.63-1.05.87-2.08,1.76-3.15,2.6a1.92,1.92,0,0,0-.72,2.06c.16.75.78,1,1.43,1.12s1.58.3,2.37.47a12.29,12.29,0,0,1,6.29,3,40.13,40.13,0,0,0,15.72,9.5,129.33,129.33,0,0,0,13.55,3.46,1,1,0,0,1,1,1.2,34.49,34.49,0,0,0,.11,3.52c.1,1.2.84,1.65,2,1.3a7.69,7.69,0,0,0,.94-.38c3.93-1.87,7.87-3.74,11.78-5.63a2.94,2.94,0,0,1,2.82,0c2.27,1.14,4.56,2.22,6.84,3.31,1.84.89,3.67,1.79,5.53,2.6,1.54.67,2.42.1,2.53-1.54a16.38,16.38,0,0,0,0-3c-.13-1,.28-1.3,1.16-1.46q4.29-.79,8.52-1.84c7.65-1.91,14.6-5.15,20.34-10.72a11.66,11.66,0,0,1,2.82-1.93,22,22,0,0,1,5.67-1.67c.79-.17,1.63-.34,1.86-1.28a2,2,0,0,0-1-2.13c-1.2-1-2.38-2-3.68-3.06l1.06-.42c2.53-1,5.07-2,7.59-3,1.12-.44,1.5-1.1,1.29-2.06C170.71,100.79,170.16,100.49,169.61,100.2Zm-5.16,1.86L158,104.62a7.43,7.43,0,0,0-.77.33c-1.34.69-1.5,1.66-.39,2.7.95.89,2,1.69,3,2.54.17.15.51.25.4.55s-.37.17-.58.2a10.09,10.09,0,0,0-5.38,2.73c-6.34,6.21-14.06,9.73-22.63,11.56-1.88.39-3.76.78-5.62,1.24-.75.19-.89,0-.86-.72.05-1.33.07-2.66,0-4-.1-1.71-1-2.3-2.56-1.62-2.41,1-4.76,2.2-7.13,3.31-1.74.82-3.47,1.63-5.18,2.48a2.82,2.82,0,0,1-2.66,0c-3.78-1.81-7.59-3.58-11.39-5.36a12.25,12.25,0,0,0-1.36-.57c-1.25-.41-1.91,0-2.08,1.29a38.64,38.64,0,0,0-.09,4.17c0,1.11,0,1.13-1.05.9-5.53-1.2-11.07-2.32-16.27-4.66a41.78,41.78,0,0,1-11.52-7.85c-1.64-1.56-3.4-2.78-5.77-2.74-.28,0-.61,0-.69-.34s.19-.43.38-.58c1-.75,1.92-1.47,2.85-2.23,1.62-1.33,1.45-2.51-.48-3.29-2.52-1-5.06-2-7.6-2.94-.06-.25.17-.29.32-.37,1.51-.83,3-1.73,4.58-2.42,2.52-1.1,3.67-3.18,4.1-5.77,1.06-6.38,3.28-12.4,5.56-18.41a1.28,1.28,0,0,1,.83-.93C71,73,72.79,70.75,74.08,68a37.07,37.07,0,0,0,3.17-11.66,52.67,52.67,0,0,0-.65-16.71c-.27-1.31-1-1.84-1.94-1.55s-1.17.91-1,2.1.43,2.37.58,3.57A44.45,44.45,0,0,1,71.61,66a10.49,10.49,0,0,1-1.9,3.16,5,5,0,0,1-5.63,1.51A11.87,11.87,0,0,1,60.81,69a48.59,48.59,0,0,1-9.15-8.51,8.82,8.82,0,0,1-1.51-9.29A19.65,19.65,0,0,1,52,47.58c2.5-3.91,5-7.82,7.52-11.7a19.5,19.5,0,0,1,12.39-8.47c3.08-.7,5.86,1.1,6.74,4.34A46.33,46.33,0,0,1,79.59,38a41.87,41.87,0,0,0,4,12.86c.48,1,.83,1.06,1.72.42A32,32,0,0,1,96.9,45.88a23.75,23.75,0,0,1,3-.31,1.33,1.33,0,0,0,1.37-1.19c1.66-7.93,3.36-15.84,5-23.76q1.13-5.25,2.27-10.5a6,6,0,0,1,.23-.68c.43.22.34.63.4.93q3.67,16.94,7.29,33.89a1.21,1.21,0,0,0,1.13,1.1,32.91,32.91,0,0,1,7.62,1.81,30.21,30.21,0,0,1,4.82,2.34,3.24,3.24,0,0,0,2.24.54c3.26-.35,6.56-.39,9.79-1A68.36,68.36,0,0,0,166.82,40c1.24-.77,1.38-.76,1.65.7,2.42,12.76.05,24.19-9.33,33.71A30,30,0,0,1,153,79.1c-.42.26-.53.46-.35.93a94.27,94.27,0,0,1,3.85,14.2,6.11,6.11,0,0,0,3.48,4.5c1.8.87,3.55,1.87,5.35,2.83C165.11,101.92,164.75,101.94,164.45,102.06Z"/><path class="cls-2" d="M118.45,11.49c1.29.21,2.58.36,3.85.61a54.27,54.27,0,0,1,32.05,18.47,61.29,61.29,0,0,1,4.11,5.49,1.28,1.28,0,0,0,1.9.51c.65-.41.74-1.14.25-2l-.16-.23A56.36,56.36,0,0,0,131.91,12,61.31,61.31,0,0,0,118.8,8.93c-1.29,0-1.85.51-1.69,1.51C117.23,11.22,117.83,11.39,118.45,11.49Z"/><path class="cls-2" d="M77.58,21.58a2.82,2.82,0,0,0,.31-.21c6.74-4.83,14-8.34,22.34-9.55,1-.15,1.4-.61,1.3-1.44S100.8,9.25,100,9.27c-.27,0-.55,0-.82.09a51.51,51.51,0,0,0-11.52,3.4,63.59,63.59,0,0,0-11.52,6.67c-.88.62-1.08,1.38-.61,2S76.71,22.14,77.58,21.58Z"/><path class="cls-2" d="M168.43,73.53a1.18,1.18,0,0,0-1.36,1.1,5.85,5.85,0,0,0-.12.73,35,35,0,0,1-2.62,10.56c-.64,1.54-1.31,3.07-1.91,4.62-.4,1,0,1.81.86,1.94s1.21-.39,1.5-1c.42-.86.79-1.75,1.17-2.62a41.76,41.76,0,0,0,3.59-13.68,2.64,2.64,0,0,0,0-.33C169.52,74.13,169.23,73.59,168.43,73.53Z"/><path class="cls-2" d="M56.48,88.37a1.25,1.25,0,0,0,.77-1.59,3.33,3.33,0,0,0-.22-.6,46.14,46.14,0,0,1-2.39-8A55.87,55.87,0,0,1,54,71.4c-.07-.87-.56-1.36-1.34-1.33a1.19,1.19,0,0,0-1.22,1.33c0,.19,0,.37,0,.56A44.08,44.08,0,0,0,53.14,82.9a42.64,42.64,0,0,0,1.74,4.78A1.16,1.16,0,0,0,56.48,88.37Z"/><path class="cls-2" d="M79.5,100.24a9.25,9.25,0,0,1-4.72-7.33c-.15-1.07-.19-2.16-.25-2.91a16.47,16.47,0,0,1,.18-2.82c.44-2.11,1.59-2.89,3.7-2.29,3.67,1.06,7.32,2.18,11,3.29,1.12.33,2.26.65,3.35,1a2.67,2.67,0,0,1,1.86,2.88C94.17,97.43,86.73,104.24,79.5,100.24ZM98,86a3.19,3.19,0,0,1,0-6.38A3.19,3.19,0,0,1,98,86Zm15.33,21.24c-.41.51-.86.38-1.29,0-.79-.64-1.59-1.28-2.35-2a1,1,0,0,0-1.6,0c-.71.68-1.47,1.32-2.22,2a.83.83,0,0,1-1.3,0c-.37-.45-.19-.86.2-1.21.81-.72,1.64-1.42,2.4-2.18a2.55,2.55,0,0,0,.41-3.73c-.79-1.18-1.7-2.28-2.56-3.41a1.64,1.64,0,0,1-.44-1.78c.31-.71,1-.66,1.59-.67h5.66a1.35,1.35,0,0,1,1.4.69,1.43,1.43,0,0,1-.24,1.56c-.84,1.11-1.72,2.19-2.55,3.3-1.26,1.65-1.13,2.91.42,4.27.72.62,1.48,1.21,2.2,1.84C113.48,106.27,113.76,106.68,113.35,107.2ZM119.89,86a3.19,3.19,0,0,1,0-6.38,3.19,3.19,0,1,1,0,6.38Zm22.19,8.84c-1.2,4-4,5.85-8,6.5s-6.89-1-9.11-4.16a13,13,0,0,1-2.2-4.46c-.44-1.82.18-3,2-3.58,4.54-1.4,9.09-2.8,13.65-4.15,2.47-.73,3.81.17,4.18,2.7.12.79.16,1.6.24,2.39A17.41,17.41,0,0,1,142.08,94.8Z"/><path class="cls-2" d="M138.42,85c-4.56,1.35-9.11,2.75-13.65,4.15-1.79.55-2.41,1.76-2,3.58a13,13,0,0,0,2.2,4.46c2.22,3.17,5.1,4.83,9.11,4.16s6.77-2.54,8-6.5a17.41,17.41,0,0,0,.76-4.76c-.08-.79-.12-1.6-.24-2.39C142.23,85.12,140.89,84.22,138.42,85Z"/><path class="cls-2" d="M92.74,89.23c-1.09-.4-2.23-.72-3.35-1-3.66-1.11-7.31-2.23-11-3.29-2.11-.6-3.26.18-3.7,2.29A16.47,16.47,0,0,0,74.53,90c.06.75.1,1.84.25,2.91a9.25,9.25,0,0,0,4.72,7.33c7.23,4,14.67-2.81,15.1-8.13A2.67,2.67,0,0,0,92.74,89.23Z"/><path class="cls-2" d="M110.88,104.08c-1.55-1.36-1.68-2.62-.42-4.27.83-1.11,1.71-2.19,2.55-3.3a1.43,1.43,0,0,0,.24-1.56,1.35,1.35,0,0,0-1.4-.69h-5.66c-.62,0-1.28,0-1.59.67A1.64,1.64,0,0,0,105,96.7c.86,1.13,1.77,2.23,2.56,3.41a2.55,2.55,0,0,1-.41,3.73c-.76.76-1.59,1.46-2.4,2.18-.39.35-.57.76-.2,1.21a.83.83,0,0,0,1.3,0c.75-.64,1.51-1.28,2.22-2a1,1,0,0,1,1.6,0c.76.68,1.56,1.32,2.35,2,.43.34.88.47,1.29,0s.13-.93-.27-1.28C112.36,105.29,111.6,104.7,110.88,104.08Z"/><path class="cls-2" d="M98,79.58a3.19,3.19,0,1,0,3.17,3.17A3.09,3.09,0,0,0,98,79.58Z"/><path class="cls-2" d="M119.87,79.58a3.19,3.19,0,1,0,3.21,3.14A3.14,3.14,0,0,0,119.87,79.58Z"/><path class="cls-2" d="M20.36,220.73c0-3.08,0-6.17,0-9.26,0-.71.53-1,.92-1.41.08-.08.28,0,.43,0q7.55,0,15.1,0a1.46,1.46,0,0,1,1.4,1.44c0,4-.05,7.95,0,11.93,0,.85-.56,1.33-1,1.92-.13.2-.39.1-.6.1l-8.56,0c-.49,0-1,0-1.46,0s-.43.11-.43.44c0,1.41,0,2.83,0,4.25a1.16,1.16,0,0,1-.37.88,1.75,1.75,0,0,1-1.55.63c-.84-.06-1.69,0-2.53,0a.85.85,0,0,1-.71-.32,2.35,2.35,0,0,1-.68-1.8c0-2.92,0-5.84,0-8.76Zm5.82-3c0,1.07,0,2.15,0,3.23,0,.47,0,.48.43.48,1.91,0,3.81,0,5.71,0,.31,0,.45-.07.45-.43,0-2.17,0-4.35,0-6.53,0-.45,0-.46-.46-.46H26.6c-.33,0-.44.09-.43.43C26.19,215.49,26.18,216.59,26.18,217.69Z"/><path class="cls-2" d="M116.36,220.69q0-4.73,0-9.45a1.15,1.15,0,0,1,.3-.86,1.05,1.05,0,0,1,.88-.37c4.71,0,9.43,0,14.15,0a1.9,1.9,0,0,1,1.29.67c.13.11.09.27.09.42v1.84a1,1,0,0,1-1,1.06h-9.2c-.15,0-.29,0-.44,0s-.33.11-.33.34c0,1.23,0,2.45,0,3.68,0,.22.1.31.31.3s.29,0,.44,0h8.63c.79,0,.9.11.9.93s0,1.73,0,2.6a.89.89,0,0,1-.85.9,5.42,5.42,0,0,1-.57,0h-8.05a2.41,2.41,0,0,1-.38,0c-.33,0-.45.09-.44.43,0,1,0,2.07,0,3.11,0,.35-.15.79.08,1s.68.09,1,.09h8.7a2.79,2.79,0,0,1,.5,0,.73.73,0,0,1,.65.79c0,.84,0,1.69,0,2.54a.79.79,0,0,1-.9.88H117.63a1.36,1.36,0,0,1-1.28-1.34v-9.58Z"/><path class="cls-2" d="M47.08,223.82v-6.28c0-.24,0-.49.14-.67a4.5,4.5,0,0,1,1-1,.91.91,0,0,1,.44,0c3.72,0,7.44,0,11.16,0a1.12,1.12,0,0,1,1,.52,2.11,2.11,0,0,1,.5,1.51q0,3,0,6a1.27,1.27,0,0,1-.27.74,2.21,2.21,0,0,1-2.16,1.05c-2.45-.09-4.9,0-7.36,0H51.1c-.18,0-.27.08-.27.26v2.79c0,.3.19.28.38.28H57c.3,0,.43-.09.41-.4a7.48,7.48,0,0,1,0-.82c0-.39.13-.51.5-.51,1.06,0,2.12,0,3.18,0,.41,0,.53.14.54.54,0,1,0,1.95,0,2.92a1.18,1.18,0,0,1-.94.88,2.41,2.41,0,0,1-.38,0H48.56c-.28,0-.59.09-.8-.22s-.72-.67-.7-1.28c0-2.1,0-4.19,0-6.28Zm7-5H51.22c-.3,0-.41.07-.4.38,0,1.06,0,2.11,0,3.17,0,.27.09.37.37.36H57c.27,0,.37-.09.37-.36,0-1.06,0-2.11,0-3.17,0-.32-.13-.38-.41-.38Z"/><path class="cls-2" d="M172.18,223.8c0-2.05,0-4.1,0-6.15a1.33,1.33,0,0,1,.5-1.16c.11-.09.2-.22.3-.32a.87.87,0,0,1,.67-.29c3.81,0,7.62,0,11.42,0a.92.92,0,0,1,.75.37,2.52,2.52,0,0,1,.61,1.79c0,1.95,0,3.9,0,5.84a1.51,1.51,0,0,1-.35.91,2.08,2.08,0,0,1-2,.93c-2.47-.07-4.94,0-7.42,0h-.38c-.24,0-.35.08-.34.33v2.66c0,.24.1.35.34.34h.19l5.58,0c.45,0,.45,0,.46-.45a6.4,6.4,0,0,1,0-.76c0-.37.15-.5.51-.51,1.06,0,2.12,0,3.18,0,.41,0,.53.12.54.54,0,1,0,1.94,0,2.91,0,.36-.53.83-.94.88a2.38,2.38,0,0,1-.38,0H173.65c-.26,0-.56.11-.76-.18s-.74-.69-.73-1.33c.05-2.1,0-4.19,0-6.29Zm7-1.11H182c.29,0,.41-.09.4-.4,0-1,0-2.07,0-3.1,0-.3-.09-.41-.4-.41h-5.77c-.26,0-.38.07-.37.35q0,1.59,0,3.18c0,.31.13.39.42.38Z"/><path class="cls-2" d="M153.28,226l.87-2.77c.65-2.08,1.3-4.15,1.94-6.23a1.23,1.23,0,0,1,1.31-1c.8,0,1.61,0,2.41,0,.44,0,.64.26.87.53s0,.36-.05.53c-.45,1.41-.92,2.81-1.38,4.22q-1.53,4.65-3.05,9.32c-.27.82-.48,1-1.31,1h-5a1,1,0,0,1-1.15-.85q-2.07-6.85-4.11-13.71c-.19-.65.08-1,.76-1h4a1.14,1.14,0,0,1,1.23.93q1.22,4.25,2.41,8.47c.05.18.11.36.16.54Z"/><path class="cls-2" d="M197.71,223.56v-6.78a1.49,1.49,0,0,1,1.43-1.42h8.24a1.14,1.14,0,0,1,.72.18.77.77,0,0,1,.37.68c0,1,0,2,0,3a.89.89,0,0,1-.94.95c-1.29,0-2.58,0-3.87,0-.47,0-.48,0-.48.49v9.7a1.09,1.09,0,0,1-.07.62,1,1,0,0,1-1,.64c-1.12-.06-2.24,0-3.36,0a1,1,0,0,1-1.08-1.09c0-1.65,0-3.3,0-4.95v-2Z"/><path class="cls-2" d="M73,224.5v-5.2c0-.48,0-.49-.49-.5H70.9a.65.65,0,0,1-.71-.7c0-.57,0-1.14,0-1.72a.76.76,0,0,1,.76-.75c.58,0,1.15,0,1.72,0,.3,0,.4-.1.4-.4,0-.81,0-1.61,0-2.41,0-.64.16-.78.79-.79h2.92c.59,0,.84.26.84.84,0,.79,0,1.57,0,2.35,0,.31.1.41.4.4.51,0,1,0,1.53,0s.64.09.64.62c0,.69,0,1.39,0,2.09,0,.45,0,.47-.46.49s-1.06,0-1.59,0-.51,0-.51.53v7.68c0,.39-.16.89.07,1.17s.75.08,1.15.1c.88.05,1,.1,1,1,0,.36,0,.72,0,1.08a1,1,0,0,1-.28.74,1.22,1.22,0,0,1-1.09.47c-1,0-2.07,0-3.11,0a1.25,1.25,0,0,1-.77-.23,11.61,11.61,0,0,0-1-.67,1,1,0,0,1-.5-.94c0-1.76,0-3.51,0-5.27Z"/><path class="cls-2" d="M99.34,222.59H94.77c-.71,0-.76-.05-.77-.75,0-.91,0-1.82,0-2.73,0-.69.13-.81.82-.81h9.51a.49.49,0,0,1,.47.51c0,1.1,0,2.19,0,3.29a.42.42,0,0,1-.41.47,5.44,5.44,0,0,1-.57,0Z"/></g></g></svg>